<?xml version="1.0" encoding="utf-8"?>
<!-- Generator: Adobe Illustrator 24.0.0, SVG Export Plug-In . SVG Version: 6.00 Build 0)  -->
<svg version="1.1" id="Capa_1" xmlns="http://www.w3.org/2000/svg" xmlns:xlink="http://www.w3.org/1999/xlink" x="0px" y="0px"
	 viewBox="0 0 60 60" style="enable-background:new 0 0 60 60;" xml:space="preserve">
<style type="text/css">
	.st0{fill:#EFEFEF;fill-opacity:0.6;}
	.st1{fill:#FFFFFF;fill-opacity:0.8;}
	.st2{fill-rule:evenodd;clip-rule:evenodd;fill:#2F80ED;}
</style>
<circle class="st0" cx="30" cy="30" r="30"/>
<circle class="st1" cx="30" cy="30" r="25"/>
<path class="st2" d="M23,22c0-0.6,0.4-1,1-1h4c0.6,0,1,0.4,1,1v16c0,0.6-0.4,1-1,1h-4c-0.6,0-1-0.4-1-1V22z M25,23v14h2V23H25z"/>
<path class="st2" d="M31,22c0-0.6,0.4-1,1-1h4c0.6,0,1,0.4,1,1v16c0,0.6-0.4,1-1,1h-4c-0.6,0-1-0.4-1-1V22z M33,23v14h2V23H33z"/>
</svg>
